<?xml version="1.0" encoding="utf-8"?>
<!-- Generator: Adobe Illustrator 27.4.1, SVG Export Plug-In . SVG Version: 6.00 Build 0)  -->
<svg version="1.0" id="Слой_1" xmlns="http://www.w3.org/2000/svg" xmlns:xlink="http://www.w3.org/1999/xlink" x="0px" y="0px"
	 viewBox="0 0 595.28 841.89" style="enable-background:new 0 0 595.28 841.89;" xml:space="preserve">
<style type="text/css">
	
		.st0{clip-path:url(#SVGID_00000146467847034769026950000000136538171659210892_);fill:url(#SVGID_00000044885315903136947490000013506012794451386808_);}
	
		.st1{clip-path:url(#SVGID_00000116953746379647218760000017764174741009751702_);fill:url(#SVGID_00000035513617057102200590000016938841577142580375_);}
	
		.st2{clip-path:url(#SVGID_00000152982136761968788580000010155271497811146393_);fill:url(#SVGID_00000181065407543772399440000014535241365565853076_);}
	
		.st3{clip-path:url(#SVGID_00000029035775880423165040000013544325468597386408_);fill:url(#SVGID_00000081627998919276602980000002006083567525232788_);}
	
		.st4{clip-path:url(#SVGID_00000012447598556090332110000006642912883617679533_);fill:url(#SVGID_00000176731428646824565080000012532697894811167399_);}
	
		.st5{clip-path:url(#SVGID_00000049218032029214740380000006448860155590708151_);fill:url(#SVGID_00000137094846977043044190000005394603107839454909_);}
	
		.st6{clip-path:url(#SVGID_00000056402285034920853970000004526305633912508582_);fill:url(#SVGID_00000147208019133941090460000014311357468454202017_);}
	
		.st7{clip-path:url(#SVGID_00000101084258604161018520000005026209577082780545_);fill:url(#SVGID_00000108299880171856439960000003879972432984629649_);}
	
		.st8{clip-path:url(#SVGID_00000033334986890819942870000008485772114958621584_);fill:url(#SVGID_00000029004341107257732950000015396453104987327676_);}
</style>
<g>
	<defs>
		<path id="SVGID_1_" d="M344.19,676.95c0,0-6.73,50.42,52.26,81.5c-11.98-1.85-30.03-13.69-39.23-21.17
			C346.24,728.36,324.37,699.22,344.19,676.95"/>
	</defs>
	<clipPath id="SVGID_00000145046409094880399390000010995510002049587354_">
		<use xlink:href="#SVGID_1_"  style="overflow:visible;"/>
	</clipPath>
	
		<linearGradient id="SVGID_00000169541779638524890410000006757959912434105253_" gradientUnits="userSpaceOnUse" x1="378.5519" y1="725.6543" x2="319.8419" y2="699.9042">
		<stop  offset="0" style="stop-color:#D0EAF1"/>
		<stop  offset="1" style="stop-color:#9098C9"/>
	</linearGradient>
	
		<rect x="324.37" y="676.95" style="clip-path:url(#SVGID_00000145046409094880399390000010995510002049587354_);fill:url(#SVGID_00000169541779638524890410000006757959912434105253_);" width="72.08" height="81.5"/>
</g>
<g>
	<defs>
		<path id="SVGID_00000075139805671549058640000006676734332675602054_" d="M324.89,564.88c21.17,8.64,147.1,88.22,123.46,0.93
			c0,0.01,26.51,52.71-5.98,69.63c-32.49,16.92-73.46-13.51-127.49-41.85c-36.57-18.88-60.45,19.01-40.55,62.93
			c14.82,32.69,53.62,70.43,103.21,96.41c-30.11-11.05-68.48-27.89-116.15-98.34C204.3,570.22,279.86,546.49,324.89,564.88"/>
	</defs>
	<clipPath id="SVGID_00000015335706028702509860000006665338370182599322_">
		<use xlink:href="#SVGID_00000075139805671549058640000006676734332675602054_"  style="overflow:visible;"/>
	</clipPath>
	
		<linearGradient id="SVGID_00000147211566507019040310000005388181402190727844_" gradientUnits="userSpaceOnUse" x1="265.7506" y1="564.6077" x2="336.8307" y2="646.5377">
		<stop  offset="0" style="stop-color:#D0EAF1"/>
		<stop  offset="1" style="stop-color:#9098C9"/>
	</linearGradient>
	
		<rect x="204.3" y="546.49" style="clip-path:url(#SVGID_00000015335706028702509860000006665338370182599322_);fill:url(#SVGID_00000147211566507019040310000005388181402190727844_);" width="270.56" height="206.44"/>
</g>
<g>
	<defs>
		<path id="SVGID_00000144327843594735490700000005774527005188118960_" d="M320.61,608.03c54.03,28.34,94.09,52.12,126.57,35.2
			c32.49-16.92,11.72-68.24,11.71-68.25c-8.72-32.24-54.5-54.79-80.93-68.58c-31.55-17.35-53.64-37.86-70.99-67.83
			c-20.33-36.6-24.22-73.64-11.36-107.88c7.23,10.58,15.68,19.87,25.42,27.49c-0.06,16.55,5.83,38.85,29.89,61.31
			c47.57,44.4,124.98,54.55,158.57,115.44c33.59,60.89,9.43,108.16-11.8,127.41c-19.37,17.58-69.45,38.35-138.53-3.09
			c-47.57-28.54-63.43-21.57-54.55,10.15c8.88,31.71,38.57,56.88,38.57,56.88c-34.93-25.16-58.5-61.87-62.64-87.53
			C275.91,609.95,294.3,594.24,320.61,608.03"/>
	</defs>
	<clipPath id="SVGID_00000015313839593143292920000009529087582330558875_">
		<use xlink:href="#SVGID_00000144327843594735490700000005774527005188118960_"  style="overflow:visible;"/>
	</clipPath>
	
		<linearGradient id="SVGID_00000047762156122495972250000001705658851581971886_" gradientUnits="userSpaceOnUse" x1="511.39" y1="528.4837" x2="263.96" y2="528.4837">
		<stop  offset="0" style="stop-color:#D0EAF1"/>
		<stop  offset="1" style="stop-color:#9098C9"/>
	</linearGradient>
	
		<rect x="275.91" y="330.69" style="clip-path:url(#SVGID_00000015313839593143292920000009529087582330558875_);fill:url(#SVGID_00000047762156122495972250000001705658851581971886_);" width="267.19" height="395.59"/>
</g>
<g>
	<defs>
		<path id="SVGID_00000030451887417383207550000014505467971680710806_" d="M265,326.43c-1.88,7.04-3.04,14.17-3.5,21.37
			c-7.98-13.18-26.74-31.99-30.37-41.84C239.49,307.8,256.97,321.12,265,326.43 M241.07,280.43c7.59-8.75,16.66-16.4,26.62-22.99
			c0.94,3.83,9.4,33.81,9.34,33.91l-17.73-8.16c6.26,9.71,5.16,7.21,11.28,27.33C260.52,300.58,250.48,291.02,241.07,280.43z
			 M226.08,383.89c-5.31-14.28-16.06-37.41,8.53-30.71c1.43,0.39,2.85,0.83,4.26,1.29l22.73,9.26c1.51,19.98,8.16,40.39,19.5,60.81
			c17.35,29.97,48.75,62.18,80.3,79.53c24.35,12.71,45.13,20.45,59.04,38.46c-9.71-8.23-21.02-15.23-30.89-20.72
			C361.01,505.95,256.5,465.71,226.08,383.89z"/>
	</defs>
	<clipPath id="SVGID_00000023269053097703759380000009260766547717258134_">
		<use xlink:href="#SVGID_00000030451887417383207550000014505467971680710806_"  style="overflow:visible;"/>
	</clipPath>
	
		<linearGradient id="SVGID_00000078031004035108382920000013849428014367078538_" gradientUnits="userSpaceOnUse" x1="408.32" y1="399.979" x2="205.2" y2="399.979">
		<stop  offset="0" style="stop-color:#D0EAF1"/>
		<stop  offset="1" style="stop-color:#9098C9"/>
	</linearGradient>
	
		<rect x="210.02" y="257.43" style="clip-path:url(#SVGID_00000023269053097703759380000009260766547717258134_);fill:url(#SVGID_00000078031004035108382920000013849428014367078538_);" width="210.42" height="285.09"/>
</g>
<g>
	<defs>
		<path id="SVGID_00000013901765945586338000000013113077675188309932_" d="M325.65,361.6c-12.73-8.92-23.41-20.55-32.19-34.16
			l-21.68-33.62l20.21,13.47c-2.56-4.66-4.55-9.64-5.86-14.97l-6.81-27.69l12.67,12.08c-13.54-17.3-11.58-26.66-13.44-47.28
			l16.65,18.21c3.45,3.77,7.38,6.97,11.73,9.56c-9.45-11.01-17.04-23.66-22.64-37.74l-20.19-50.72l34.39,42.4
			c10.07,12.41,23.66,17.05,38.19,19.4c-4.11-2.77-8.04-5.74-11.75-8.84c-17.49-14.64-32.37-34.51-36.62-57.33
			c-2.49-13.34-1.1-26.65,3.98-39.24l20.49-50.79l-4.48,54.58c-0.86,10.46,2.32,22.12,5.64,31.94c1.87,5.51,4.58,10.79,7.89,15.72
			c0.14-1.23,0.31-2.43,0.5-3.61c3.22-24.34,18.97-23.71,37.27-25.46l-10.84,14.92c-2.93,4.04-4.32,11.25-4.12,16.08
			c0.71,17.49,16.65,31.63,30.13,40.61c25.09,13.87,36,5.68,55.71,33.08c-7.14-8.14-15.53-13.79-26.25-16.35
			c-9.57-2.29-20.3-6.13-28.92-10.89l-0.13-0.07l-0.13-0.09c-14.93-9.94-31.64-25.18-32.42-44.4c-0.24-5.86,1.43-13.96,4.91-18.76
			l6.27-8.64c-14.11,1.29-24.1,3.48-26.56,22.07l-0.02,0.11c-0.19,1.17-0.35,2.34-0.49,3.51l-1.15,10.05l-5.63-8.4
			c-3.52-5.25-6.46-10.93-8.49-16.93c-3.59-10.62-6.87-22.82-5.94-34.11l2.57-31.33l-11.76,29.15c-4.91,12.17-6.27,25.07-3.86,37.99
			c4.18,22.42,18.95,41.98,36.12,56.37c3.74,3.13,7.64,6.06,11.68,8.79l14.01,9.45l-16.68-2.7c-16.26-2.63-30.59-7.94-41.29-21.13
			l-19.74-24.34l11.59,29.11c5.43,13.65,12.9,26.33,22.48,37.48l18.96,14.52l-23.69-8.9c-4.76-2.84-9.07-6.35-12.81-10.45
			l-9.78-10.7c0.83,13.31,1.6,22.05,12.18,35.58l2.13,2.72l11.16,10.95l-22.5-12.23l3.91,15.89c1.24,5.03,3.15,9.84,5.63,14.38
			l7.28,13.28l-18.35-12.23l12.44,19.3C305.11,342.5,314.54,353.13,325.65,361.6"/>
	</defs>
	<clipPath id="SVGID_00000062897967699942724840000000231536595198767264_">
		<use xlink:href="#SVGID_00000013901765945586338000000013113077675188309932_"  style="overflow:visible;"/>
	</clipPath>
	
		<linearGradient id="SVGID_00000065765604723785235410000018284693963550006935_" gradientUnits="userSpaceOnUse" x1="425.53" y1="217.9697" x2="263.44" y2="217.9697">
		<stop  offset="0" style="stop-color:#D0EAF1"/>
		<stop  offset="1" style="stop-color:#9098C9"/>
	</linearGradient>
	
		<rect x="264.09" y="74.34" style="clip-path:url(#SVGID_00000062897967699942724840000000231536595198767264_);fill:url(#SVGID_00000065765604723785235410000018284693963550006935_);" width="166.39" height="287.25"/>
</g>
<g>
	<defs>
		<path id="SVGID_00000178175605677338592740000006055995474556107161_" d="M477.66,343.52c-9.91-15.41-33.02-23.94-58.51-36.78
			c-18.55-9.34-39.64-22.48-51.56-34.85C377.84,304.05,451.7,320.04,477.66,343.52 M526.5,348.18l-6.02,13.85
			c-14.85,7.27-20.3,18.44-34.01,24.25c-0.18,0.33-0.36,0.66-0.55,0.99c-0.42,0.17-0.8,0.35-1.23,0.52c0,0,4.63-8.25,1.76-17.89
			c1.27,1.27,2.35,2.56,3.25,3.85c0.5-5.64-0.5-11.37-2.74-16.73c-1.55-1.82-3.27-3.53-5.14-5.1
			c-24.21-19.89-70.83-18.17-87.63-46.17c4.4,16.12,10.43,32.98,16.83,47.15c1.89,2.64,4.05,5.22,6.55,7.74
			c8.27,8.22,18.08,15.04,28.7,18.67c-10.12-7.49-16.73-16.87-20.98-25.16c8.78,11.93,22.92,23.6,45.41,27.28
			c0.55-0.1,1.11-0.21,1.66-0.33c0.18,0.03,0.36,0.06,0.54,0.09c0.08,4.53-10.8,33.59-20.68,37.34c4.15-9.8-19.44-38.23-31.19-44.38
			c-5.27-1.62-11.97-2.16-19.76-1.7c-19.26,1.15-67.31,2.46-100.83-49.53c0,0,0.36,0.22,1.05,0.58
			c16.64,15.25,38.47,23.65,61.53,29.5c2.78,0.58,5.92,1.13,9.27,1.71c-33.36-13.44-70.26-32.52-78.1-64.39
			c12.47,11.89,29.67,21.04,46.41,19.18c-14.52-8.52-50.08-39.94-51.56-56.25c5.27,5.76,11.65,10.49,19.05,13.98
			c10.52,4.87,29.79,14.8,41.52,13.16c-27.63-14.29-46.73-36.66-57.61-64c22.71,28.01,58.98,21.44,86.47,27.92
			c25.82,6.68,50.1,24.87,65.9,46.13c-19.04-27.26-31.52-39.66-66.73-49.86c-44.73-11.92-98.37-60.98-77.65-112.34
			c-0.97,11.85,2.43,24.58,6.05,35.29c4.88,14.43,14.91,27.53,26.8,37.5c-3.93-7.78-3.61-18.87-2.29-26.85
			c0.91-7.14,5.16-12.13,10.45-16.5c0.34-0.05,0.67-0.1,1.02-0.13c0,0-24.48,33.66,28.42,68.69c0,0,13,7.28,29.81,11.29
			c16.81,4.02,34.66,18.13,52.46,51.63c11.57,21.77,14.98,30.37,29.42,39.16C498.87,338.52,507.17,341.15,526.5,348.18z
			 M408.66,287.39c6.05,12.32,27.71,22.09,15.33,2.94c-5.02-7.77-12.58-18.39-33.93-19.94
			C390.06,270.39,403.63,274.43,408.66,287.39z"/>
	</defs>
	<clipPath id="SVGID_00000092430040673478282370000000407594153901891212_">
		<use xlink:href="#SVGID_00000178175605677338592740000006055995474556107161_"  style="overflow:visible;"/>
	</clipPath>
	
		<linearGradient id="SVGID_00000004536549594484303810000012583394305322949012_" gradientUnits="userSpaceOnUse" x1="418.8148" y1="203.5408" x2="394.3848" y2="310.7008">
		<stop  offset="0" style="stop-color:#D0EAF1"/>
		<stop  offset="1" style="stop-color:#9098C9"/>
	</linearGradient>
	
		<rect x="279.28" y="128.25" style="clip-path:url(#SVGID_00000092430040673478282370000000407594153901891212_);fill:url(#SVGID_00000004536549594484303810000012583394305322949012_);" width="247.23" height="290.29"/>
</g>
<g>
	<defs>
		<path id="SVGID_00000009559383729880685180000009367900833299470781_" d="M209.97,567.45c-49.58-6.21-85.94-22.67-119.78-60.59
			c-22.71-25.45-41.48-59.96-46.95-93.89c-20.45-126.78,70.89-243.22,171.83-306.67c-30.88,67.02-19.64,108.72,21.89,168.95
			c-49.3-61.98-54.94-104.48-30.57-157.27C112.48,176.59,29.77,297.75,48.31,412.8c5.37,33.29,23.85,67.29,46.11,92.34
			C122.25,536.45,169.44,562.41,209.97,567.45"/>
	</defs>
	<clipPath id="SVGID_00000026160772934855292910000010438381772862385561_">
		<use xlink:href="#SVGID_00000009559383729880685180000009367900833299470781_"  style="overflow:visible;"/>
	</clipPath>
	
		<linearGradient id="SVGID_00000036234295300575223330000013020244842456098186_" gradientUnits="userSpaceOnUse" x1="225.18" y1="336.8781" x2="27.68" y2="336.8781">
		<stop  offset="0" style="stop-color:#D0EAF1"/>
		<stop  offset="1" style="stop-color:#9098C9"/>
	</linearGradient>
	
		<rect x="22.79" y="106.31" style="clip-path:url(#SVGID_00000026160772934855292910000010438381772862385561_);fill:url(#SVGID_00000036234295300575223330000013020244842456098186_);" width="214.18" height="461.14"/>
</g>
<g>
	<defs>
		<path id="SVGID_00000058573299880066905290000013724084084222187449_" d="M158.65,178.74C57.26,303.38,46.74,455.13,183.83,540.21
			c-91.43-62.22-68.38-163.6,4.48-128.25c-3.92-22.93-7.67-49.33-12.65-71.56c-5.19-18.84-9.03-35.05-13.07-54.33
			c-14.29-67.93-3.77-88.75,17.65-125.79c-6.44,21.23-10.38,53.8-2.58,85.87c8.5,34.91,35.45,68.59,72.54,96.94
			c-6.92-11.13-37.18-38-22.81-44.04c8.45-3.54,32.39,15.51,43.67,22.72c-2.43-5.2-47.18-40.99-64.03-77.89
			c-30.65-67.11-20.14-93.47-12.11-110.89C115.88,182.68,43.32,315.68,58.92,412.37c8.78,54.41,60.29,133.41,147.78,144.36
			C50.02,509.28,26.56,321.81,158.65,178.74"/>
	</defs>
	<clipPath id="SVGID_00000102544106539454335460000013098557868679725234_">
		<use xlink:href="#SVGID_00000058573299880066905290000013724084084222187449_"  style="overflow:visible;"/>
	</clipPath>
	
		<linearGradient id="SVGID_00000022532188021193726110000008257912938422662300_" gradientUnits="userSpaceOnUse" x1="258.23" y1="344.8656" x2="42.99" y2="344.8656">
		<stop  offset="0" style="stop-color:#D0EAF1"/>
		<stop  offset="1" style="stop-color:#9098C9"/>
	</linearGradient>
	
		<rect x="26.56" y="133" style="clip-path:url(#SVGID_00000102544106539454335460000013098557868679725234_);fill:url(#SVGID_00000022532188021193726110000008257912938422662300_);" width="244.51" height="423.74"/>
</g>
<g>
	<defs>
		<path id="SVGID_00000117671730121025937940000011249488301981362340_" d="M241.6,347.77l7.09,3.49
			c-42.51-36.1-70.76-56.13-83.17-131.91c-3.49,47.87,6.52,79.47,12.99,103.53c6.97,26.63,8.81,73.68,19.39,92.23
			c-3.25-21.49,0.63-42.34,13.04-62.26C219.33,341.3,231.22,344.37,241.6,347.77"/>
	</defs>
	<clipPath id="SVGID_00000112628670183068350490000005361268753005670304_">
		<use xlink:href="#SVGID_00000117671730121025937940000011249488301981362340_"  style="overflow:visible;"/>
	</clipPath>
	
		<linearGradient id="SVGID_00000157286256224130150000000014070611252478052482_" gradientUnits="userSpaceOnUse" x1="214.1158" y1="277.017" x2="199.8158" y2="342.657">
		<stop  offset="0" style="stop-color:#D0EAF1"/>
		<stop  offset="1" style="stop-color:#9098C9"/>
	</linearGradient>
	
		<rect x="162.02" y="219.35" style="clip-path:url(#SVGID_00000112628670183068350490000005361268753005670304_);fill:url(#SVGID_00000157286256224130150000000014070611252478052482_);" width="86.66" height="195.76"/>
</g>
</svg>
