<?xml version="1.0" encoding="utf-8"?>
<svg version="1.0" id="Слой_1" xmlns="http://www.w3.org/2000/svg" xmlns:xlink="http://www.w3.org/1999/xlink" x="0px" y="0px"
	 viewBox="0 0 516.43 691.06" style="enable-background:new 0 0 516.43 691.06;" xml:space="preserve">
<style type="text/css">
		.st0{clip-path:url(#SVGID_00000059289250377701980190000015404293717974797233_);fill:url(#SVGID_00000179628705376578922310000014530991443512778123_);}
		.st1{clip-path:url(#SVGID_00000182522333151574180630000003744846595179345058_);fill:url(#SVGID_00000078033991410699447550000003152728626034491273_);}
		.st2{clip-path:url(#SVGID_00000026861591974293178640000001291746220475537326_);fill:url(#SVGID_00000116921689806478647580000011610245670704837520_);}
		.st3{clip-path:url(#SVGID_00000103982051622183331250000016278346874720745652_);fill:url(#SVGID_00000056409854902308778490000017534489528599596962_);}
		.st4{clip-path:url(#SVGID_00000005243345254516954370000001911817675088649357_);fill:url(#SVGID_00000093894971175604953730000008569002656500298418_);}
		.st5{clip-path:url(#SVGID_00000000917486305532606230000010277636967305449378_);fill:url(#SVGID_00000165220064038911857030000000359074110956831405_);}
		.st6{clip-path:url(#SVGID_00000145029738555981650760000013555822177148805262_);fill:url(#SVGID_00000176010158478176381900000012276055021709203854_);}
		.st7{clip-path:url(#SVGID_00000128456100480983660050000006345789449576654468_);fill:url(#SVGID_00000078038047334829757920000008932398503029457562_);}
		.st8{clip-path:url(#SVGID_00000030454350921019514120000015597165286170419641_);fill:url(#SVGID_00000116217028819503574220000015793969829914412695_);}
</style>
<g>
	<defs>
		<path id="SVGID_1_" d="M313.06,606.38c0,0-6.73,50.42,52.26,81.5c-11.98-1.85-30.03-13.69-39.23-21.17
			C315.11,657.79,293.24,628.64,313.06,606.38"/>
	</defs>
	<clipPath id="SVGID_00000097493206162073514990000013311112137481080999_">
		<use xlink:href="#SVGID_1_"  style="overflow:visible;"/>
	</clipPath>
	
		<linearGradient id="SVGID_00000006674563781242930160000015619845301664435386_" gradientUnits="userSpaceOnUse" x1="347.4242" y1="655.0837" x2="288.7142" y2="629.3336">
		<stop  offset="0" style="stop-color:#81F78D"/>
		<stop  offset="1" style="stop-color:#0dc61f"/>
	</linearGradient>
	
		<rect x="293.24" y="606.38" style="clip-path:url(#SVGID_00000097493206162073514990000013311112137481080999_);fill:url(#SVGID_00000006674563781242930160000015619845301664435386_);" width="72.08" height="81.5"/>
</g>
<g>
	<defs>
		<path id="SVGID_00000084507385033878687860000004215990796734333584_" d="M293.76,494.31c21.17,8.64,147.1,88.22,123.46,0.93
			c0,0.01,26.51,52.71-5.98,69.63c-32.49,16.92-73.46-13.51-127.49-41.85c-36.57-18.88-60.45,19.01-40.55,62.93
			c14.82,32.69,53.62,70.43,103.21,96.41c-30.11-11.05-68.48-27.89-116.15-98.34C173.17,499.65,248.73,475.92,293.76,494.31"/>
	</defs>
	<clipPath id="SVGID_00000119097477473534926600000004230477648626490029_">
		<use xlink:href="#SVGID_00000084507385033878687860000004215990796734333584_"  style="overflow:visible;"/>
	</clipPath>
	
		<linearGradient id="SVGID_00000149353417232976649560000009555847127429656195_" gradientUnits="userSpaceOnUse" x1="234.623" y1="494.0371" x2="305.703" y2="575.9671">
		<stop  offset="0" style="stop-color:#81F78D"/>
		<stop  offset="1" style="stop-color:#0dc61f"/>
	</linearGradient>
	
		<rect x="173.17" y="475.92" style="clip-path:url(#SVGID_00000119097477473534926600000004230477648626490029_);fill:url(#SVGID_00000149353417232976649560000009555847127429656195_);" width="270.56" height="206.44"/>
</g>
<g>
	<defs>
		<path id="SVGID_00000124132733737272083200000013335296955218758552_" d="M289.48,537.46c54.03,28.34,94.09,52.12,126.57,35.2
			c32.49-16.92,11.72-68.24,11.71-68.25c-8.72-32.24-54.5-54.79-80.93-68.58c-31.55-17.35-53.64-37.86-70.99-67.83
			c-20.33-36.6-24.22-73.64-11.36-107.88c7.23,10.58,15.68,19.87,25.42,27.49c-0.06,16.55,5.83,38.85,29.89,61.31
			c47.57,44.4,124.98,54.55,158.57,115.44c33.59,60.89,9.43,108.16-11.8,127.41c-19.37,17.58-69.45,38.35-138.53-3.09
			c-47.57-28.54-63.43-21.57-54.55,10.15c8.88,31.71,38.57,56.88,38.57,56.88c-34.93-25.16-58.5-61.87-62.64-87.53
			C244.78,539.38,263.18,523.67,289.48,537.46"/>
	</defs>
	<clipPath id="SVGID_00000116944328000980750830000014189835383608881569_">
		<use xlink:href="#SVGID_00000124132733737272083200000013335296955218758552_"  style="overflow:visible;"/>
	</clipPath>
	
		<linearGradient id="SVGID_00000108293669496287047070000017586509655430303372_" gradientUnits="userSpaceOnUse" x1="480.2624" y1="457.9131" x2="232.8323" y2="457.9131">
		<stop  offset="0" style="stop-color:#81F78D"/>
		<stop  offset="1" style="stop-color:#0dc61f"/>
	</linearGradient>
	
		<rect x="244.78" y="260.12" style="clip-path:url(#SVGID_00000116944328000980750830000014189835383608881569_);fill:url(#SVGID_00000108293669496287047070000017586509655430303372_);" width="267.19" height="395.59"/>
</g>
<g>
	<defs>
		<path id="SVGID_00000065064251850545056650000016990928832484590992_" d="M233.87,255.86c-1.88,7.04-3.04,14.17-3.5,21.37
			c-7.98-13.18-26.74-31.99-30.37-41.84C208.36,237.23,225.84,250.55,233.87,255.86 M209.94,209.86
			c7.59-8.75,16.66-16.4,26.62-22.99c0.94,3.83,9.4,33.81,9.34,33.91l-17.73-8.16c6.26,9.71,5.16,7.21,11.28,27.33
			C229.4,230.01,219.35,220.45,209.94,209.86z M194.95,313.31c-5.31-14.28-16.06-37.41,8.53-30.71c1.43,0.39,2.85,0.83,4.26,1.29
			l22.73,9.26c1.51,19.98,8.16,40.39,19.5,60.81c17.35,29.97,48.75,62.18,80.3,79.53c24.35,12.71,45.13,20.45,59.04,38.46
			c-9.71-8.23-21.02-15.23-30.89-20.72C329.88,435.38,225.37,395.14,194.95,313.31z"/>
	</defs>
	<clipPath id="SVGID_00000054228136443795921060000014502124464270155179_">
		<use xlink:href="#SVGID_00000065064251850545056650000016990928832484590992_"  style="overflow:visible;"/>
	</clipPath>
		<linearGradient id="SVGID_00000041283170365420324480000006654906563646453635_" gradientUnits="userSpaceOnUse" x1="377.1924" y1="329.4084" x2="174.0723" y2="329.4084">
		<stop  offset="0" style="stop-color:#81F78D"/>
		<stop  offset="1" style="stop-color:#0dc61f"/>
	</linearGradient>
		<rect x="178.89" y="186.86" style="clip-path:url(#SVGID_00000054228136443795921060000014502124464270155179_);fill:url(#SVGID_00000041283170365420324480000006654906563646453635_);" width="210.42" height="285.09"/>
</g>
<g>
	<defs>
		<path id="SVGID_00000098937800724589096880000008793839237695688376_" d="M294.52,291.03c-12.73-8.92-23.41-20.55-32.19-34.16
			l-21.68-33.62l20.21,13.47c-2.56-4.66-4.55-9.64-5.86-14.97l-6.81-27.69l12.67,12.08c-13.54-17.3-11.58-26.66-13.44-47.28
			l16.65,18.21c3.45,3.77,7.38,6.97,11.73,9.56c-9.45-11.01-17.04-23.66-22.64-37.74l-20.19-50.72l34.39,42.4
			c10.07,12.41,23.66,17.05,38.19,19.4c-4.11-2.77-8.04-5.74-11.75-8.84c-17.49-14.64-32.37-34.51-36.62-57.33
			c-2.49-13.34-1.1-26.65,3.98-39.24l20.49-50.79l-4.48,54.58c-0.86,10.46,2.32,22.12,5.64,31.94c1.87,5.51,4.58,10.79,7.89,15.72
			c0.14-1.23,0.31-2.43,0.5-3.61c3.22-24.34,18.97-23.71,37.27-25.46l-10.84,14.92c-2.93,4.04-4.32,11.25-4.12,16.08
			c0.71,17.49,16.65,31.63,30.13,40.61c25.09,13.87,36,5.68,55.71,33.08c-7.14-8.14-15.53-13.79-26.25-16.35
			c-9.57-2.29-20.3-6.13-28.92-10.89l-0.13-0.07l-0.13-0.09c-14.93-9.94-31.64-25.18-32.42-44.4c-0.24-5.86,1.43-13.96,4.91-18.76
			l6.27-8.64c-14.11,1.29-24.1,3.48-26.56,22.07l-0.02,0.11c-0.19,1.17-0.35,2.34-0.49,3.51l-1.15,10.05l-5.63-8.4
			c-3.52-5.25-6.46-10.93-8.49-16.93c-3.59-10.62-6.87-22.82-5.94-34.11l2.57-31.33l-11.76,29.15c-4.91,12.17-6.27,25.07-3.86,37.99
			c4.18,22.42,18.95,41.98,36.12,56.37c3.74,3.13,7.64,6.06,11.68,8.79l14.01,9.45l-16.68-2.7c-16.26-2.63-30.59-7.94-41.29-21.13
			l-19.74-24.34l11.59,29.11c5.43,13.65,12.9,26.33,22.48,37.48l18.96,14.52l-23.69-8.9c-4.76-2.84-9.07-6.35-12.81-10.45
			l-9.78-10.7c0.83,13.31,1.6,22.05,12.18,35.58l2.13,2.72l11.16,10.95l-22.5-12.23l3.91,15.89c1.24,5.03,3.15,9.84,5.63,14.38
			l7.28,13.28l-18.35-12.23l12.44,19.3C273.98,271.93,283.41,282.56,294.52,291.03"/>
	</defs>
	<clipPath id="SVGID_00000066491934039312866310000017073412443186051515_">
		<use xlink:href="#SVGID_00000098937800724589096880000008793839237695688376_"  style="overflow:visible;"/>
	</clipPath>
	
		<linearGradient id="SVGID_00000070108553076081280370000018022936158827328698_" gradientUnits="userSpaceOnUse" x1="394.4023" y1="147.3991" x2="232.3123" y2="147.3991">
		<stop  offset="0" style="stop-color:#81F78D"/>
		<stop  offset="1" style="stop-color:#0dc61f"/>
	</linearGradient>
		<rect x="232.96" y="3.77" style="clip-path:url(#SVGID_00000066491934039312866310000017073412443186051515_);fill:url(#SVGID_00000070108553076081280370000018022936158827328698_);" width="166.39" height="287.25"/>
</g>
<g>
	<defs>
		<path id="SVGID_00000016062060967456280730000017664720879979869095_" d="M446.54,272.94c-9.91-15.41-33.02-23.94-58.51-36.78
			c-18.55-9.34-39.64-22.48-51.56-34.85C346.72,233.48,420.57,249.47,446.54,272.94 M495.38,277.61l-6.02,13.85
			c-14.85,7.27-20.3,18.44-34.01,24.25c-0.18,0.33-0.36,0.66-0.55,0.99c-0.42,0.17-0.8,0.35-1.23,0.52c0,0,4.63-8.25,1.76-17.89
			c1.27,1.27,2.35,2.56,3.25,3.85c0.5-5.64-0.5-11.37-2.74-16.73c-1.55-1.82-3.27-3.53-5.14-5.1
			c-24.21-19.89-70.83-18.17-87.63-46.17c4.4,16.12,10.43,32.98,16.83,47.15c1.89,2.64,4.05,5.22,6.55,7.74
			c8.27,8.22,18.08,15.04,28.7,18.67c-10.12-7.49-16.73-16.87-20.98-25.16c8.78,11.93,22.92,23.6,45.41,27.28
			c0.55-0.1,1.11-0.21,1.66-0.33c0.18,0.03,0.36,0.06,0.54,0.09c0.08,4.53-10.8,33.59-20.68,37.34c4.15-9.8-19.44-38.23-31.19-44.38
			c-5.27-1.62-11.97-2.16-19.76-1.7c-19.26,1.15-67.31,2.46-100.83-49.53c0,0,0.36,0.22,1.05,0.58
			c16.64,15.25,38.47,23.65,61.53,29.5c2.78,0.58,5.92,1.13,9.27,1.71c-33.36-13.44-70.26-32.52-78.1-64.39
			c12.47,11.89,29.67,21.04,46.41,19.18c-14.52-8.52-50.08-39.94-51.56-56.25c5.27,5.76,11.65,10.49,19.05,13.98
			c10.52,4.87,29.79,14.8,41.52,13.16c-27.63-14.29-46.73-36.66-57.61-64c22.71,28.01,58.98,21.44,86.47,27.92
			c25.82,6.68,50.1,24.87,65.9,46.13c-19.04-27.26-31.52-39.66-66.73-49.86c-44.73-11.92-98.37-60.98-77.65-112.34
			c-0.97,11.85,2.43,24.58,6.05,35.29c4.88,14.43,14.91,27.53,26.8,37.5c-3.93-7.78-3.61-18.87-2.29-26.85
			c0.91-7.14,5.16-12.13,10.45-16.5c0.34-0.05,0.67-0.1,1.02-0.13c0,0-24.48,33.66,28.42,68.69c0,0,13,7.28,29.81,11.29
			c16.81,4.02,34.66,18.13,52.46,51.63c11.57,21.77,14.98,30.37,29.42,39.16C467.74,267.94,476.04,270.58,495.38,277.61z
			 M377.53,216.82c6.05,12.32,27.71,22.09,15.33,2.94c-5.02-7.77-12.58-18.39-33.93-19.94
			C358.93,199.82,372.51,203.86,377.53,216.82z"/>
	</defs>
	<clipPath id="SVGID_00000139985439413108023150000016024166281883351956_">
		<use xlink:href="#SVGID_00000016062060967456280730000017664720879979869095_"  style="overflow:visible;"/>
	</clipPath>
		<linearGradient id="SVGID_00000060006643602367582900000011010200590526430380_" gradientUnits="userSpaceOnUse" x1="387.6871" y1="132.9702" x2="363.2571" y2="240.1302">
		<stop  offset="0" style="stop-color:#81F78D"/>
		<stop  offset="1" style="stop-color:#0dc61f"/>
	</linearGradient>
		<rect x="248.15" y="57.67" style="clip-path:url(#SVGID_00000139985439413108023150000016024166281883351956_);fill:url(#SVGID_00000060006643602367582900000011010200590526430380_);" width="247.23" height="290.29"/>
</g>
<g>
	<defs>
		<path id="SVGID_00000044137199736772175140000007144323759337091738_" d="M178.85,496.88c-49.58-6.21-85.94-22.67-119.78-60.59
			c-22.71-25.45-41.48-59.96-46.95-93.89C-8.34,215.62,83,99.18,183.95,35.74c-30.88,67.02-19.64,108.72,21.89,168.95
			c-49.3-61.98-54.94-104.48-30.57-157.27C81.35,106.02-1.36,227.18,17.19,342.23c5.37,33.29,23.85,67.29,46.11,92.34
			C91.13,465.88,138.32,491.84,178.85,496.88"/>
	</defs>
	<clipPath id="SVGID_00000176764890412304400330000004855883005283682453_">
		<use xlink:href="#SVGID_00000044137199736772175140000007144323759337091738_"  style="overflow:visible;"/>
	</clipPath>
	
		<linearGradient id="SVGID_00000115484560120782527670000000069775981971454606_" gradientUnits="userSpaceOnUse" x1="194.0523" y1="266.3075" x2="-3.4477" y2="266.3075">
		<stop  offset="0" style="stop-color:#81F78D"/>
		<stop  offset="1" style="stop-color:#0dc61f"/>
	</linearGradient>
	
		<rect x="-8.34" y="35.74" style="clip-path:url(#SVGID_00000176764890412304400330000004855883005283682453_);fill:url(#SVGID_00000115484560120782527670000000069775981971454606_);" width="214.18" height="461.14"/>
</g>
<g>
	<defs>
		<path id="SVGID_00000161627927344436592390000007052831584069034922_" d="M127.52,108.16C26.13,232.81,15.61,384.56,152.7,469.64
			c-91.43-62.22-68.38-163.6,4.48-128.25c-3.92-22.93-7.67-49.33-12.65-71.56c-5.19-18.84-9.03-35.05-13.07-54.33
			c-14.29-67.93-3.77-88.75,17.65-125.79c-6.44,21.23-10.38,53.8-2.58,85.87c8.5,34.91,35.45,68.59,72.54,96.94
			c-6.92-11.13-37.18-38-22.81-44.04c8.45-3.54,32.39,15.51,43.67,22.72c-2.43-5.2-47.18-40.99-64.03-77.89
			c-30.65-67.11-20.14-93.47-12.11-110.89C84.75,112.11,12.2,245.1,27.79,341.8c8.78,54.41,60.29,133.41,147.78,144.36
			C18.89,438.7-4.57,251.24,127.52,108.16"/>
	</defs>
	<clipPath id="SVGID_00000039829496559038979950000009972923448936844966_">
		<use xlink:href="#SVGID_00000161627927344436592390000007052831584069034922_"  style="overflow:visible;"/>
	</clipPath>
	
		<linearGradient id="SVGID_00000091732913477949350550000009936668033614752942_" gradientUnits="userSpaceOnUse" x1="227.1024" y1="274.295" x2="11.8623" y2="274.295">
		<stop  offset="0" style="stop-color:#81F78D"/>
		<stop  offset="1" style="stop-color:#0dc61f"/>
	</linearGradient>
	
		<rect x="-4.57" y="62.42" style="clip-path:url(#SVGID_00000039829496559038979950000009972923448936844966_);fill:url(#SVGID_00000091732913477949350550000009936668033614752942_);" width="244.51" height="423.74"/>
</g>
<g>
	<defs>
		<path id="SVGID_00000152945067728392899940000002698031673182729399_" d="M210.47,277.2l7.09,3.49
			c-42.51-36.1-70.76-56.13-83.17-131.91c-3.49,47.87,6.52,79.47,12.99,103.53c6.97,26.63,8.81,73.68,19.39,92.23
			c-3.25-21.49,0.63-42.34,13.04-62.26C188.2,270.73,200.1,273.8,210.47,277.2"/>
	</defs>
	<clipPath id="SVGID_00000069375118578839284490000017671700144294878345_">
		<use xlink:href="#SVGID_00000152945067728392899940000002698031673182729399_"  style="overflow:visible;"/>
	</clipPath>
	
		<linearGradient id="SVGID_00000075850890940015590980000014212691414685076656_" gradientUnits="userSpaceOnUse" x1="182.9882" y1="206.4464" x2="168.6882" y2="272.0864">
		<stop  offset="0" style="stop-color:#81F78D"/>
		<stop  offset="1" style="stop-color:#0dc61f"/>
	</linearGradient>
	
		<rect x="130.9" y="148.78" style="clip-path:url(#SVGID_00000069375118578839284490000017671700144294878345_);fill:url(#SVGID_00000075850890940015590980000014212691414685076656_);" width="86.66" height="195.76"/>
</g>
</svg>
