<?xml version="1.0" encoding="utf-8"?>
<!-- Generator: Adobe Illustrator 27.4.1, SVG Export Plug-In . SVG Version: 6.00 Build 0)  -->
<svg version="1.0" id="Слой_1" xmlns="http://www.w3.org/2000/svg" xmlns:xlink="http://www.w3.org/1999/xlink" x="0px" y="0px"
	 viewBox="0 0 595.28 841.89" style="enable-background:new 0 0 595.28 841.89;" xml:space="preserve">
<style type="text/css">
	
		.st0{clip-path:url(#SVGID_00000011709791657344699360000015930196466467244204_);fill:url(#SVGID_00000071548406397377910700000011534063347651009952_);}
	
		.st1{clip-path:url(#SVGID_00000119098221557003717610000006694986151825197741_);fill:url(#SVGID_00000135673403954674597260000006481990254656812211_);}
	
		.st2{clip-path:url(#SVGID_00000036235948621513233710000004989340150609335430_);fill:url(#SVGID_00000062174736584085391990000003037853346997668791_);}
	
		.st3{clip-path:url(#SVGID_00000012447117726950321990000010918920196377779338_);fill:url(#SVGID_00000057858072692541004790000006581058450083716738_);}
	
		.st4{clip-path:url(#SVGID_00000145761586843951193050000017908766639098721448_);fill:url(#SVGID_00000064333182146975814680000000461330465972495778_);}
</style>
<g>
	<defs>
		<path id="SVGID_1_" d="M262.72,685.41c0,0-6.83,51.17,53.04,82.72c-12.16-1.88-30.48-13.89-39.82-21.48
			C264.8,737.59,242.6,708.01,262.72,685.41"/>
	</defs>
	<clipPath id="SVGID_00000059988147616853104340000014433907001929838241_">
		<use xlink:href="#SVGID_1_"  style="overflow:visible;"/>
	</clipPath>
	
		<linearGradient id="SVGID_00000088121663059525727590000017447664493505716877_" gradientUnits="userSpaceOnUse" x1="297.5943" y1="734.8445" x2="238.0143" y2="708.7145">
		<stop  offset="0" style="stop-color:#D0EAF1"/>
		<stop  offset="1" style="stop-color:#9098C9"/>
	</linearGradient>
	
		<rect x="242.6" y="685.41" style="clip-path:url(#SVGID_00000059988147616853104340000014433907001929838241_);fill:url(#SVGID_00000088121663059525727590000017447664493505716877_);" width="73.16" height="82.72"/>
</g>
<g>
	<defs>
		<path id="SVGID_00000091714130631967908240000007492577128950597823_" d="M243.13,571.67c21.48,8.77,149.3,89.54,125.3,0.94
			c0.01,0.01,26.91,53.5-6.07,70.67c-32.97,17.18-74.56-13.71-129.4-42.48c-37.11-19.16-61.36,19.3-41.16,63.87
			c15.04,33.18,54.42,71.48,104.75,97.85c-30.56-11.21-69.5-28.31-117.89-99.81C120.73,577.09,197.42,553,243.13,571.67"/>
	</defs>
	<clipPath id="SVGID_00000138538475132035568910000005256934588950412451_">
		<use xlink:href="#SVGID_00000091714130631967908240000007492577128950597823_"  style="overflow:visible;"/>
	</clipPath>
	
		<linearGradient id="SVGID_00000040549764878578483040000006996552774885335959_" gradientUnits="userSpaceOnUse" x1="183.1038" y1="571.402" x2="255.2538" y2="654.5521">
		<stop  offset="0" style="stop-color:#D0EAF1"/>
		<stop  offset="1" style="stop-color:#9098C9"/>
	</linearGradient>
	
		<rect x="120.73" y="553" style="clip-path:url(#SVGID_00000138538475132035568910000005256934588950412451_);fill:url(#SVGID_00000040549764878578483040000006996552774885335959_);" width="274.61" height="209.52"/>
</g>
<g>
	<defs>
		<path id="SVGID_00000173147678774859367630000014983877837603715259_" d="M238.79,615.47c54.84,28.77,95.49,52.9,128.47,35.73
			c32.98-17.17,11.89-69.26,11.89-69.27c-8.85-32.72-55.32-55.61-82.14-69.61c-32.02-17.61-54.44-38.43-72.05-68.85
			c-20.63-37.14-24.58-74.75-11.53-109.49c7.34,10.74,15.91,20.16,25.8,27.9c-0.06,16.8,5.92,39.43,30.34,62.22
			c48.28,45.07,126.85,55.37,160.94,117.17c34.1,61.8,9.57,109.78-11.98,129.32c-19.66,17.84-70.48,38.93-140.6-3.14
			c-48.28-28.97-64.37-21.89-55.36,10.3c9.01,32.18,39.15,57.73,39.15,57.73c-35.45-25.54-59.38-62.8-63.58-88.84
			C193.41,617.41,212.09,601.46,238.79,615.47 M199.4,269.34c0.89-0.58,1.8-1.14,2.7-1.7c1.98,3.8,4.57,7.61,7.38,11.24l-0.02,0.07
			L199.4,269.34z M155.5,398.77c-22.45-60.4,3.06-102.44,42.23-128.34l6.05,24.6c1.18,4.8,2.91,9.33,5.1,13.6
			c-0.15,0.24-0.3,0.48-0.45,0.73l-19.21-12.81l14.15,21.95c-19.06,38.08-15.21,79.79,7.97,121.52
			c17.61,30.42,45.38,55.66,77.4,73.27c24.71,12.9,45.8,20.76,59.92,39.04c-9.86-8.35-21.34-15.46-31.35-21.03
			C288.35,515.21,186.38,481.81,155.5,398.77z"/>
	</defs>
	<clipPath id="SVGID_00000107551000396720242730000013721486598807675529_">
		<use xlink:href="#SVGID_00000173147678774859367630000014983877837603715259_"  style="overflow:visible;"/>
	</clipPath>
	
		<linearGradient id="SVGID_00000066479986274505001190000002119301501240362377_" gradientUnits="userSpaceOnUse" x1="429.4" y1="501.5573" x2="127.77" y2="501.5573">
		<stop  offset="0" style="stop-color:#D0EAF1"/>
		<stop  offset="1" style="stop-color:#9098C9"/>
	</linearGradient>
	
		<rect x="133.05" y="267.64" style="clip-path:url(#SVGID_00000107551000396720242730000013721486598807675529_);fill:url(#SVGID_00000066479986274505001190000002119301501240362377_);" width="331.54" height="467.84"/>
</g>
<g>
	<defs>
		<path id="SVGID_00000043420077078191652220000013161331241005984386_" d="M243.9,365.34c-12.92-9.05-23.76-20.85-32.67-34.67
			l-22-34.13l20.51,13.67c-2.59-4.73-4.62-9.79-5.95-15.19l-6.91-28.1l12.86,12.26c-13.74-17.56-11.75-27.06-13.64-47.99l16.9,18.48
			c3.5,3.83,7.49,7.08,11.9,9.7c-9.59-11.17-17.29-24.02-22.98-38.3l-20.5-51.48l34.9,43.04c10.22,12.6,24.01,17.3,38.76,19.68
			c-4.17-2.81-8.16-5.82-11.92-8.97c-17.75-14.86-32.85-35.03-37.17-58.19c-2.53-13.54-1.11-27.05,4.04-39.82l20.8-51.55l-4.55,55.4
			c-0.87,10.62,2.35,22.45,5.73,32.42c1.89,5.6,4.65,10.96,8.01,15.96c0.14-1.25,0.31-2.47,0.51-3.66
			c3.27-24.7,19.25-24.07,37.83-25.84l-11,15.15c-2.98,4.1-4.38,11.41-4.18,16.32c0.72,17.76,16.9,32.11,30.58,41.22
			c25.46,14.08,36.53,5.76,56.55,33.57c-7.25-8.26-15.76-14-26.64-16.6c-9.72-2.32-20.61-6.22-29.36-11.06l-0.14-0.08l-0.13-0.09
			c-15.15-10.09-32.12-25.56-32.91-45.07c-0.24-5.95,1.46-14.17,4.99-19.04l6.36-8.76c-14.32,1.31-24.46,3.54-26.96,22.4l-0.02,0.11
			c-0.19,1.19-0.36,2.37-0.49,3.57l-1.17,10.2l-5.72-8.52c-3.58-5.33-6.55-11.1-8.61-17.18c-3.65-10.78-6.97-23.16-6.03-34.62
			l2.61-31.8l-11.94,29.59c-4.98,12.36-6.36,25.45-3.92,38.55c4.25,22.76,19.23,42.61,36.66,57.21c3.79,3.18,7.76,6.15,11.86,8.92
			l14.22,9.59l-16.93-2.74c-16.5-2.67-31.05-8.06-41.91-21.45l-20.03-24.7l11.76,29.55c5.52,13.85,13.09,26.72,22.82,38.04
			l19.24,14.74l-24.04-9.04c-4.84-2.88-9.2-6.45-13-10.6l-9.93-10.86c0.84,13.51,1.62,22.38,12.36,36.11l2.16,2.77l11.32,11.12
			l-22.83-12.42l3.96,16.13c1.26,5.11,3.19,9.99,5.72,14.6l7.39,13.48l-18.63-12.42l12.63,19.59
			C223.05,345.97,232.62,356.75,243.9,365.34"/>
	</defs>
	<clipPath id="SVGID_00000008122588537098209410000016367202353557456553_">
		<use xlink:href="#SVGID_00000043420077078191652220000013161331241005984386_"  style="overflow:visible;"/>
	</clipPath>
	
		<linearGradient id="SVGID_00000153679450563696360830000000768152357765107896_" gradientUnits="userSpaceOnUse" x1="345.27" y1="219.5698" x2="180.76" y2="219.5698">
		<stop  offset="0" style="stop-color:#D0EAF1"/>
		<stop  offset="1" style="stop-color:#9098C9"/>
	</linearGradient>
	
		<rect x="181.42" y="73.8" style="clip-path:url(#SVGID_00000008122588537098209410000016367202353557456553_);fill:url(#SVGID_00000153679450563696360830000000768152357765107896_);" width="168.88" height="291.55"/>
</g>
<g>
	<defs>
		<path id="SVGID_00000147936272619886804120000015177430691183048092_" d="M398.19,346.99c-10.06-15.64-33.51-24.29-59.38-37.33
			c-18.82-9.48-40.23-22.82-52.33-35.37C296.88,306.94,371.84,323.17,398.19,346.99 M447.76,351.73l-6.11,14.06
			c-15.08,7.37-20.61,18.72-34.52,24.61c-0.18,0.34-0.36,0.67-0.56,1.01c-0.42,0.18-0.81,0.35-1.25,0.52c0,0,4.69-8.37,1.78-18.16
			c1.29,1.29,2.39,2.6,3.3,3.91c0.5-5.72-0.51-11.54-2.78-16.98c-1.58-1.85-3.32-3.58-5.21-5.17
			c-24.57-20.18-71.88-18.44-88.94-46.86c4.47,16.36,10.58,33.47,17.08,47.85c1.92,2.68,4.11,5.3,6.65,7.86
			c8.39,8.34,18.35,15.26,29.13,18.95c-10.27-7.61-16.98-17.12-21.29-25.54c8.91,12.11,23.26,23.96,46.09,27.69
			c0.56-0.1,1.12-0.21,1.69-0.33c0.19,0.03,0.36,0.06,0.55,0.09c0.08,4.59-10.97,34.09-20.99,37.9c4.21-9.95-19.73-38.8-31.66-45.04
			c-5.35-1.65-12.15-2.19-20.05-1.72c-19.55,1.17-68.32,2.49-102.34-50.27c0,0,0.37,0.23,1.06,0.59
			c16.89,15.48,39.05,24.01,62.45,29.94c2.82,0.59,6.01,1.15,9.41,1.74c-33.86-13.64-71.31-33-79.26-65.35
			c12.66,12.07,30.12,21.35,47.1,19.46c-14.74-8.65-50.83-40.54-52.33-57.09c5.35,5.85,11.82,10.64,19.33,14.18
			c10.68,4.94,30.23,15.02,42.14,13.35c-28.04-14.51-47.43-37.21-58.47-64.96c23.05,28.43,59.86,21.76,87.76,28.34
			c26.2,6.78,50.85,25.24,66.89,46.82c-19.32-27.66-32-40.25-67.73-50.6c-45.4-12.09-99.85-61.89-78.82-114.02
			c-0.99,12.02,2.47,24.95,6.14,35.82c4.95,14.65,15.13,27.94,27.2,38.06c-3.99-7.89-3.66-19.15-2.33-27.25
			c0.92-7.25,5.24-12.31,10.61-16.75c0.34-0.05,0.68-0.1,1.03-0.13c0,0-24.85,34.16,28.84,69.72c0,0,13.19,7.39,30.25,11.46
			c17.07,4.08,35.18,18.4,53.25,52.4c11.74,22.1,15.2,30.83,29.86,39.74C419.71,341.92,428.13,344.59,447.76,351.73z M328.15,290.03
			c6.14,12.5,28.12,22.43,15.56,2.98c-5.09-7.88-12.77-18.67-34.43-20.23C309.28,272.78,323.05,276.88,328.15,290.03z"/>
	</defs>
	<clipPath id="SVGID_00000095325813303798821460000007116490083930824380_">
		<use xlink:href="#SVGID_00000147936272619886804120000015177430691183048092_"  style="overflow:visible;"/>
	</clipPath>
	
		<linearGradient id="SVGID_00000008840356943336693350000004254654608103247522_" gradientUnits="userSpaceOnUse" x1="338.4619" y1="204.9239" x2="313.6619" y2="313.6839">
		<stop  offset="0" style="stop-color:#D0EAF1"/>
		<stop  offset="1" style="stop-color:#9098C9"/>
	</linearGradient>
	
		<rect x="196.83" y="128.5" style="clip-path:url(#SVGID_00000095325813303798821460000007116490083930824380_);fill:url(#SVGID_00000008840356943336693350000004254654608103247522_);" width="250.92" height="294.63"/>
</g>
</svg>
